<?xml version="1.0" standalone="no"?>
<!DOCTYPE svg PUBLIC "-//W3C//DTD SVG 20010904//EN"
 "http://www.w3.org/TR/2001/REC-SVG-20010904/DTD/svg10.dtd">
<svg version="1.0" xmlns="http://www.w3.org/2000/svg"
 width="100.000000pt" height="100.000000pt" viewBox="0 0 100.000000 100.000000"
 preserveAspectRatio="xMidYMid meet">
<metadata>
Created by potrace 1.10, written by Peter Selinger 2001-2011
</metadata>
<g transform="translate(0.000000,100.000000) scale(0.100000,-0.100000)"
fill="#04397b" stroke="none">
<path d="M308 795 c-27 -14 -57 -43 -80 -76 -34 -50 -36 -59 -34 -121 3 -85
32 -128 88 -128 23 0 28 -4 28 -23 0 -13 -5 -28 -12 -35 -10 -9 -8 -16 5 -29
16 -16 18 -16 34 0 13 13 15 20 5 29 -18 18 -14 53 8 73 20 18 20 17 20 -46 0
-38 -5 -70 -12 -77 -16 -16 12 -45 35 -36 19 7 23 39 7 49 -5 3 -10 29 -10 56
0 46 2 50 21 47 19 -3 21 -9 21 -93 l0 -90 -39 -3 c-68 -5 -129 50 -140 125
-4 25 -15 46 -33 61 l-28 22 -7 -30 c-24 -107 60 -223 176 -245 47 -9 116 10
129 35 7 12 10 72 8 150 l-3 130 -69 0 c-61 0 -70 -3 -88 -25 -25 -32 -62 -32
-92 -1 -20 19 -24 33 -24 87 0 78 5 89 29 58 20 -27 39 -18 21 11 -18 29 -15
54 9 76 17 15 23 16 41 5 24 -15 36 -7 18 14 -10 12 -9 16 4 21 40 15 61 -30
36 -77 -13 -23 -28 -24 -52 -2 -14 12 -21 14 -30 5 -8 -8 -2 -16 23 -31 66
-39 76 -66 31 -86 -29 -13 -28 -25 2 -25 35 0 49 24 43 72 -4 28 -1 48 10 65
10 15 13 34 9 53 -5 25 -2 30 14 30 24 0 40 -28 40 -69 0 -26 -4 -30 -21 -28
-30 3 -34 -16 -7 -28 18 -8 23 -18 22 -43 -1 -21 3 -32 12 -32 20 0 20 178 0
205 -21 29 -113 29 -168 0z"/>
<path d="M613 617 c-76 -87 -81 -96 -84 -145 -4 -57 1 -63 25 -29 14 20 17 20
26 6 5 -9 43 -59 83 -110 72 -93 74 -94 120 -97 26 -1 47 0 47 3 0 4 -47 65
-105 137 l-104 131 49 56 c26 31 64 72 84 90 20 19 36 39 36 43 0 4 -22 8 -48
8 l-48 0 -81 -93z m-17 -135 c-10 -10 -29 15 -21 28 6 9 10 8 17 -4 6 -10 7
-20 4 -24z"/>
<path d="M270 610 c-11 -11 -20 -24 -20 -29 0 -16 41 -61 56 -61 21 0 17 18
-6 30 -29 16 -24 39 10 51 17 6 30 15 30 20 0 17 -50 9 -70 -11z"/>
</g>
</svg>
