<?xml version="1.0" standalone="no"?>
<!DOCTYPE svg PUBLIC "-//W3C//DTD SVG 20010904//EN"
 "http://www.w3.org/TR/2001/REC-SVG-20010904/DTD/svg10.dtd">
<svg version="1.0" xmlns="http://www.w3.org/2000/svg"
 width="110.000000pt" height="110.000000pt" viewBox="0 0 110.000000 110.000000"
 preserveAspectRatio="xMidYMid meet">
<metadata>
Created by potrace 1.10, written by Peter Selinger 2001-2011
</metadata>
<g transform="translate(0.000000,110.000000) scale(0.100000,-0.100000)"
fill="#073067" stroke="none">
<path d="M342 878 c-50 -27 -82 -58 -82 -79 0 -10 -6 -22 -14 -26 -24 -15 -34
-47 -34 -116 0 -62 2 -71 30 -102 18 -21 43 -37 64 -41 26 -5 34 -11 34 -28 0
-12 -5 -27 -10 -32 -15 -15 -1 -44 21 -44 26 0 32 18 21 67 -8 35 -7 43 9 57
11 9 21 16 24 16 11 0 4 -122 -7 -140 -14 -22 -1 -55 22 -55 23 0 36 33 22 55
-14 23 -16 106 -3 114 5 4 17 3 25 0 14 -5 16 -21 14 -103 l-3 -96 -37 -3
c-77 -6 -157 63 -160 139 -1 25 -10 41 -34 62 l-33 28 -7 -35 c-17 -94 39
-201 128 -247 53 -27 156 -26 192 2 l27 21 -4 151 -3 152 -81 3 c-78 3 -82 2
-85 -20 -4 -26 -43 -44 -79 -35 -13 3 -32 19 -41 34 -23 40 -22 173 2 173 4 0
10 -9 13 -20 3 -11 12 -20 21 -20 20 0 20 0 0 39 -15 29 -14 34 1 57 22 33 42
40 64 20 22 -20 34 -10 20 15 -7 15 -6 21 6 25 44 17 62 -43 26 -87 -19 -23
-20 -23 -40 -5 -26 24 -61 15 -40 -11 8 -9 29 -22 47 -30 26 -11 32 -19 32
-44 0 -22 -5 -32 -20 -36 -22 -6 -26 -18 -10 -28 6 -4 22 1 35 9 20 13 25 25
25 56 0 21 -4 42 -10 45 -6 4 -1 18 12 35 16 22 19 37 15 64 -5 30 -3 36 12
36 26 0 38 -19 43 -67 3 -38 2 -41 -21 -40 -31 2 -39 -20 -9 -25 19 -2 23 -10
26 -45 2 -29 8 -43 18 -43 11 0 14 20 14 103 0 95 -2 105 -22 124 -31 28 -123
28 -176 1z"/>
<path d="M671 676 l-91 -104 0 -59 1 -58 22 26 22 27 90 -119 90 -118 59 0 60
-1 -26 27 c-14 16 -68 83 -121 149 l-95 121 94 101 c52 55 94 103 94 106 0 3
-24 6 -54 6 l-54 0 -91 -104z m-11 -107 c0 -11 5 -29 11 -41 15 -29 7 -30 -25
-4 -25 19 -27 25 -17 44 15 28 31 28 31 1z"/>
<path d="M325 690 c-52 -21 -58 -70 -12 -103 19 -15 30 -18 38 -10 7 7 2 15
-15 27 -35 22 -33 45 4 59 17 6 29 16 27 21 -5 14 -19 16 -42 6z"/>
</g>
</svg>
