<?xml version="1.0" standalone="no"?>
<!DOCTYPE svg PUBLIC "-//W3C//DTD SVG 20010904//EN"
 "http://www.w3.org/TR/2001/REC-SVG-20010904/DTD/svg10.dtd">
<svg version="1.0" xmlns="http://www.w3.org/2000/svg"
 width="95.000000pt" height="95.000000pt" viewBox="0 0 95.000000 95.000000"
 preserveAspectRatio="xMidYMid meet">
<metadata>
Created by potrace 1.10, written by Peter Selinger 2001-2011
</metadata>
<g transform="translate(0.000000,95.000000) scale(0.100000,-0.100000)"
fill="#6c2d9f" stroke="none">
<path d="M326 803 c-3 -3 -6 -21 -6 -39 0 -26 -3 -32 -15 -28 -41 16 -107 -50
-91 -91 4 -12 -2 -15 -29 -15 -24 0 -35 -5 -35 -15 0 -10 10 -15 30 -15 27 0
30 -3 30 -33 0 -32 -2 -33 -30 -29 -23 3 -30 0 -30 -12 0 -11 9 -16 30 -16 28
0 30 -3 30 -35 0 -32 -2 -35 -30 -35 -21 0 -30 -5 -30 -16 0 -12 7 -14 30 -9
29 6 30 5 30 -29 0 -33 -2 -36 -30 -36 -20 0 -30 -5 -30 -15 0 -10 10 -15 30
-15 25 0 30 -4 30 -24 0 -38 41 -79 78 -78 28 1 31 -2 34 -34 4 -45 22 -44 26
1 3 34 5 36 35 33 28 -3 31 -6 32 -37 0 -19 6 -36 13 -38 8 -3 12 8 12 36 0
40 1 41 35 41 34 0 36 -1 33 -35 -1 -19 1 -37 4 -41 14 -13 29 9 26 39 -3 29
0 32 29 35 30 3 32 1 35 -33 4 -46 22 -46 26 0 2 27 7 35 20 33 50 -7 100 38
90 83 -2 8 9 15 30 19 43 7 42 24 -2 28 -31 3 -33 5 -31 35 2 26 7 32 26 33
48 2 53 4 43 13 -5 5 -22 11 -39 13 -25 3 -29 7 -29 33 0 26 4 30 32 33 21 2
32 9 32 18 0 11 -9 15 -31 12 -29 -3 -32 0 -34 29 -2 30 0 32 31 35 45 4 44
22 -1 26 -30 3 -35 7 -30 21 13 43 -49 103 -89 88 -11 -4 -16 3 -18 29 -4 44
-22 45 -26 2 -3 -30 -6 -33 -34 -32 -29 1 -32 4 -32 34 -1 47 -24 50 -28 4 -3
-35 -6 -38 -33 -38 -27 0 -30 3 -33 38 -4 46 -27 44 -28 -4 0 -29 -3 -33 -32
-35 -30 -3 -32 -1 -32 31 0 32 -11 50 -24 37z m366 -110 c16 -15 18 -35 18
-216 0 -172 -2 -203 -17 -219 -15 -16 -35 -18 -216 -18 -172 0 -203 2 -219 17
-16 15 -18 35 -18 216 0 172 2 203 17 219 15 16 35 18 216 18 172 0 203 -2
219 -17z"/>
<path d="M312 627 c-20 -21 -22 -34 -22 -150 0 -161 5 -167 123 -167 l78 0 -2
75 c-1 41 0 77 2 79 2 3 29 -31 59 -74 50 -71 58 -79 88 -80 40 0 39 2 -46
110 l-59 75 70 78 69 77 -33 0 c-30 0 -42 -9 -92 -70 l-59 -70 -53 0 c-51 0
-52 -1 -47 -26 4 -21 9 -25 28 -21 23 4 24 2 24 -50 l0 -54 -51 3 -52 3 1 110
c1 61 2 113 2 118 0 4 23 7 50 7 49 0 50 -1 50 -30 0 -25 4 -30 25 -30 23 0
25 4 25 43 0 24 -5 48 -12 55 -7 7 -40 12 -78 12 -57 0 -70 -3 -88 -23z"/>
</g>
</svg>
