<?xml version="1.0" standalone="no"?>
<!DOCTYPE svg PUBLIC "-//W3C//DTD SVG 20010904//EN"
 "http://www.w3.org/TR/2001/REC-SVG-20010904/DTD/svg10.dtd">
<svg version="1.0" xmlns="http://www.w3.org/2000/svg"
 width="300.000000pt" height="300.000000pt" viewBox="0 0 300.000000 300.000000"
 preserveAspectRatio="xMidYMid meet">
<metadata>
Created by potrace 1.10, written by Peter Selinger 2001-2011
</metadata>
<g transform="translate(0.000000,300.000000) scale(0.050000,-0.050000)"
fill="#531d86" stroke="none">
<path d="M2063 5054 c-12 -14 -24 -111 -27 -215 l-6 -189 -193 -10 c-323 -17
-472 -165 -492 -489 l-11 -171 -158 0 c-179 0 -236 -21 -236 -87 0 -78 37 -93
224 -93 l176 0 0 -210 0 -210 -176 0 c-187 0 -224 -15 -224 -93 0 -66 57 -87
239 -87 l161 0 0 -200 0 -200 -161 0 c-185 0 -239 -21 -239 -90 0 -69 54 -90
239 -90 l161 0 0 -210 0 -210 -168 0 c-199 0 -232 -10 -232 -68 0 -76 38 -92
213 -92 194 0 183 11 200 -209 16 -209 77 -320 224 -406 l93 -55 1260 -6 c871
-5 1291 0 1360 16 232 51 342 199 362 485 l12 175 175 0 c191 0 230 19 218
104 -7 44 -16 46 -201 52 l-193 5 -7 210 -6 209 181 0 c192 0 229 15 229 93 0
66 -57 87 -236 87 l-158 0 -13 153 c-23 272 -39 247 164 247 183 0 243 25 243
103 0 61 -47 77 -223 77 l-174 0 -7 195 c-8 245 -24 225 181 225 186 0 223 15
223 93 0 68 -64 90 -242 85 l-159 -4 -9 177 c-17 324 -167 471 -498 489 l-182
10 -6 193 c-6 218 -28 260 -114 221 -46 -21 -49 -33 -54 -218 l-6 -196 -204
-6 -205 -5 -5 203 c-10 348 -138 353 -156 6 l-10 -198 -205 -6 -205 -5 0 182
c0 201 -19 259 -87 259 -79 0 -93 -36 -93 -244 l0 -196 -200 0 -200 0 0 189
c0 225 -72 328 -157 225z m2269 -618 c146 -80 138 3 138 -1442 l0 -1297 -84
-78 -84 -79 -1300 0 -1299 0 -62 52 c-126 106 -121 46 -121 1418 0 1338 -2
1308 99 1399 69 63 156 67 1431 64 1107 -3 1226 -6 1282 -37z"/>
<path d="M2065 4038 c-228 -114 -245 -186 -245 -1022 0 -1033 17 -1055 805
-1056 l454 0 6 475 c3 342 11 475 28 475 24 0 259 -297 557 -705 l179 -245
195 0 c108 0 196 4 196 10 0 5 -193 268 -429 583 l-430 573 105 120 c57 66
240 278 407 472 l303 352 -192 6 -193 6 -60 -71 c-34 -39 -200 -232 -371 -430
l-310 -359 -315 -1 -315 -1 0 -150 0 -150 180 0 181 0 -6 -325 -5 -325 -297 0
c-410 0 -373 -74 -373 753 l0 659 50 49 c48 49 54 50 335 45 l285 -6 6 -175 6
-175 139 0 139 0 0 269 c0 255 -2 272 -48 325 l-48 56 -417 6 c-393 5 -422 3
-502 -38z"/>
<path d="M1647 1100 c-105 -42 -145 -222 -68 -299 68 -68 176 -77 261 -22 52
34 -3 66 -69 41 -111 -42 -211 112 -127 196 30 30 121 31 150 2 12 -12 32 -16
44 -9 89 55 -81 136 -191 91z"/>
<path d="M2567 1100 c-64 -26 -107 -100 -107 -185 0 -141 131 -215 269 -152
89 41 52 92 -40 57 -109 -42 -208 113 -125 196 29 29 129 32 145 5 16 -26 71
-3 71 29 0 49 -136 81 -213 50z"/>
<path d="M2926 1088 c-87 -44 -119 -139 -79 -235 54 -128 195 -154 295 -55
153 154 -21 389 -216 290z m155 -69 c58 -31 53 -149 -8 -189 -106 -69 -215 53
-145 160 35 53 90 63 153 29z"/>
<path d="M840 1070 c0 -20 20 -30 60 -30 l60 0 0 -150 c0 -137 4 -150 40 -150
36 0 40 13 40 150 0 147 1 150 50 150 31 0 50 11 50 30 0 24 -30 30 -150 30
-120 0 -150 -6 -150 -30z"/>
<path d="M1220 920 l0 -180 130 0 c102 0 130 6 130 30 0 22 -23 30 -90 30 -83
0 -90 4 -90 50 0 45 8 50 80 50 115 0 111 55 -5 64 -136 10 -133 76 4 76 76 0
101 7 101 30 0 24 -28 30 -130 30 l-130 0 0 -180z"/>
<path d="M1940 920 c0 -147 6 -180 30 -180 21 0 30 21 30 70 0 68 2 70 80 70
78 0 80 -2 80 -70 0 -57 8 -70 40 -70 37 0 40 13 40 180 0 167 -3 180 -40 180
-32 0 -40 -13 -40 -70 0 -68 -2 -70 -80 -70 -78 0 -80 2 -80 70 0 49 -9 70
-30 70 -24 0 -30 -33 -30 -180z"/>
<path d="M3276 920 c-5 -161 -2 -180 29 -180 29 0 35 19 35 110 0 124 21 138
73 50 45 -75 47 -75 107 14 l50 74 6 -124 c5 -108 11 -124 45 -124 36 0 39 15
39 180 l0 180 -55 0 c-43 0 -64 -16 -94 -70 -20 -38 -43 -70 -51 -70 -8 0 -31
32 -51 70 -76 140 -125 100 -133 -110z"/>
<path d="M3740 920 c0 -167 3 -180 40 -180 31 0 40 13 40 60 0 55 6 60 67 60
81 0 133 51 133 133 0 85 -33 107 -164 107 l-116 0 0 -180z m208 87 c17 -44
-23 -87 -80 -87 -40 0 -48 10 -48 60 0 69 104 91 128 27z"/>
<path d="M4085 920 c-61 -174 -62 -180 -22 -180 24 0 45 16 51 40 8 32 27 40
90 40 63 0 82 -8 90 -40 6 -22 27 -40 48 -40 48 0 49 -13 -24 189 -90 249
-142 247 -233 -9z m175 -32 c0 -5 -22 -8 -50 -8 -55 0 -65 36 -28 105 20 37
78 -35 78 -97z"/>
<path d="M4440 920 c0 -165 3 -180 39 -180 33 0 40 16 45 114 l6 113 86 -113
c123 -164 144 -154 144 66 0 218 -53 272 -64 65 l-6 -115 -86 115 c-130 176
-164 162 -164 -65z"/>
<path d="M4840 1087 c0 -8 27 -62 60 -120 33 -59 60 -134 60 -167 0 -40 10
-60 30 -60 19 0 30 19 30 51 0 27 27 104 60 169 71 140 71 140 24 140 -22 0
-50 -28 -70 -71 -38 -80 -57 -78 -94 11 -22 52 -100 89 -100 47z"/>
</g>
</svg>
