<?xml version="1.0" standalone="no"?>
<!DOCTYPE svg PUBLIC "-//W3C//DTD SVG 20010904//EN"
 "http://www.w3.org/TR/2001/REC-SVG-20010904/DTD/svg10.dtd">
<svg version="1.0" xmlns="http://www.w3.org/2000/svg"
 width="129.000000pt" height="129.000000pt" viewBox="0 0 129.000000 129.000000"
 preserveAspectRatio="xMidYMid meet">
<metadata>
Created by potrace 1.10, written by Peter Selinger 2001-2011
</metadata>
<g transform="translate(0.000000,129.000000) scale(0.100000,-0.100000)"
fill="#0d336b" stroke="none">
<path d="M905 961 c-82 -25 -143 -143 -104 -201 14 -22 68 -47 122 -57 15 -3
27 -9 27 -13 0 -5 9 -11 20 -15 11 -3 27 -19 37 -36 20 -33 33 -37 40 -11 2 9
18 24 36 32 17 8 34 22 37 30 4 8 12 25 18 36 20 41 24 88 8 125 -15 36 -86
108 -109 110 -43 5 -115 5 -132 0z m22 -31 c-42 -34 -68 -85 -70 -140 -1 -27
-3 -50 -4 -50 -1 0 -9 3 -18 6 -13 5 -14 8 -3 15 10 7 9 9 -3 9 -22 0 -29 21
-22 64 7 47 70 110 113 113 l32 2 -25 -19z m112 9 c24 -8 31 -17 32 -37 1 -15
5 -38 10 -52 6 -19 7 -13 3 20 l-5 45 23 -25 c13 -13 28 -39 34 -57 10 -28 9
-35 -5 -44 -12 -7 -13 -12 -4 -15 20 -9 -2 -40 -39 -54 -18 -7 -40 -19 -49
-26 -16 -14 -56 -11 -72 5 -14 14 36 64 59 59 11 -2 24 2 29 10 6 7 19 14 30
16 25 4 44 51 27 68 -8 8 -11 4 -9 -18 1 -20 -3 -29 -15 -32 -12 -2 -20 8 -29
40 -7 24 -13 52 -14 62 0 11 -6 21 -14 24 -9 3 -11 0 -6 -8 4 -7 9 -28 11 -46
2 -18 8 -43 14 -54 14 -26 5 -40 -25 -40 -13 0 -27 -4 -30 -10 -3 -5 -16 -10
-28 -10 -18 0 -19 -2 -7 -10 13 -9 13 -11 0 -20 -47 -30 -111 12 -94 62 4 13
8 32 9 42 1 10 9 24 17 30 9 6 17 20 19 31 3 12 14 21 27 23 12 2 22 10 22 18
0 17 35 18 79 3z m69 -242 c-14 -14 -53 -37 -62 -37 -16 0 -3 21 22 33 37 20
58 22 40 4z m-69 -53 c3 -16 1 -17 -13 -5 -19 16 -21 34 -3 29 6 -3 14 -13 16
-24z"/>
<path d="M865 910 c-10 -11 -13 -20 -8 -20 13 0 38 29 31 35 -3 3 -13 -4 -23
-15z"/>
<path d="M830 865 c-7 -8 -8 -15 -2 -15 5 0 15 7 22 15 7 8 8 15 2 15 -5 0
-15 -7 -22 -15z"/>
<path d="M821 821 c-6 -11 -7 -22 -2 -25 5 -3 11 4 14 16 8 30 1 35 -12 9z"/>
<path d="M991 907 c-1 -15 -4 -16 -22 -6 -15 8 -24 8 -32 0 -8 -8 -5 -11 9
-11 27 0 52 -20 56 -45 2 -14 -2 -20 -14 -19 -10 1 -14 -4 -11 -12 3 -9 -2
-14 -17 -14 -12 0 -28 -6 -36 -14 -23 -23 -16 -30 11 -12 14 9 29 14 34 11 5
-2 12 2 15 11 4 10 14 14 26 11 11 -3 20 -4 20 -4 -2 18 -39 117 -39 104z"/>
<path d="M915 860 c-3 -5 3 -10 14 -10 12 0 21 -5 21 -10 0 -6 6 -5 14 2 8 7
12 15 10 18 -10 9 -53 10 -59 0z"/>
<path d="M895 820 c-10 -11 -15 -23 -12 -27 7 -6 36 25 37 40 0 11 -6 8 -25
-13z"/>
<path d="M1094 760 c-12 -5 -25 -13 -29 -19 -3 -6 -17 -11 -30 -11 -13 0 -27
-4 -30 -10 -3 -5 1 -10 11 -10 22 0 104 41 104 52 0 9 1 9 -26 -2z"/>
<path d="M260 917 c-25 -13 -51 -37 -61 -57 -26 -47 -25 -135 1 -177 35 -59
121 -84 209 -63 l51 12 0 50 c0 41 3 51 20 55 43 11 17 23 -50 23 -66 0 -98
-15 -47 -22 19 -3 22 -9 22 -47 0 -39 -3 -45 -26 -51 -36 -10 -89 10 -113 43
-27 36 -28 127 -2 175 20 38 68 63 109 55 28 -6 67 -45 67 -69 0 -8 6 -14 14
-14 11 0 14 11 11 42 -2 36 -7 45 -31 55 -48 20 -126 16 -174 -10z"/>
<path d="M500 920 c0 -5 9 -10 20 -10 19 0 20 -7 20 -135 0 -128 -1 -135 -20
-135 -11 0 -20 -4 -20 -10 0 -6 32 -10 76 -10 47 0 73 4 69 10 -3 6 -12 10
-20 10 -17 0 -25 23 -25 76 0 59 15 57 68 -10 39 -50 55 -85 33 -71 -5 3 -12
1 -15 -4 -4 -5 24 -11 65 -13 68 -3 103 8 61 19 -11 3 -50 42 -85 88 l-65 82
52 52 c28 28 59 51 68 51 9 0 20 5 23 10 4 6 -19 10 -62 10 -61 -1 -66 -2 -49
-15 18 -13 17 -15 -12 -52 -16 -21 -42 -49 -56 -62 l-26 -24 0 50 c0 60 7 83
25 83 8 0 17 5 20 10 4 6 -22 10 -69 10 -44 0 -76 -4 -76 -10z"/>
<path d="M221 543 c-50 -42 -22 -123 42 -123 40 0 52 8 60 40 5 22 3 25 -23
26 -17 1 -30 -3 -30 -7 0 -5 5 -9 10 -9 13 0 13 -27 0 -35 -16 -10 -49 14 -56
39 -13 54 50 91 82 49 12 -17 13 -17 14 3 0 37 -62 47 -99 17z"/>
<path d="M397 533 c-8 -16 -18 -39 -22 -53 -4 -14 -14 -33 -23 -42 -14 -17
-13 -18 10 -18 19 0 24 5 24 23 -1 16 5 23 22 25 21 3 27 -6 23 -35 -1 -8 10
-13 29 -13 l31 0 -19 25 c-10 13 -25 45 -32 70 -15 52 -24 56 -43 18z m26 -33
c4 -15 0 -20 -13 -20 -13 0 -17 5 -13 20 3 11 9 20 13 20 4 0 10 -9 13 -20z"/>
<path d="M490 550 c0 -5 5 -10 10 -10 6 0 10 -22 10 -48 0 -55 12 -72 51 -72
40 0 59 24 59 74 0 23 5 47 12 54 9 9 6 12 -13 12 -23 0 -24 -3 -24 -57 0 -54
-2 -58 -24 -61 -13 -2 -28 2 -32 10 -12 18 -11 88 1 88 6 0 10 5 10 10 0 6
-13 10 -30 10 -16 0 -30 -4 -30 -10z"/>
<path d="M658 548 c16 -16 16 -100 0 -116 -9 -9 -3 -12 27 -12 30 0 36 3 27
12 -14 14 -16 48 -2 48 5 0 16 -13 25 -30 10 -19 23 -30 36 -30 20 0 20 2 -6
31 -24 29 -24 33 -10 49 31 34 -1 60 -74 60 -27 0 -32 -3 -23 -12z m77 -33 c0
-11 -8 -21 -17 -23 -14 -3 -18 3 -18 23 0 20 4 26 18 23 9 -2 17 -12 17 -23z"/>
<path d="M850 523 c-7 -21 -21 -53 -31 -70 l-18 -33 23 0 c17 0 22 5 22 22 -1
14 6 24 18 26 23 5 39 -18 24 -35 -8 -10 -4 -13 21 -13 28 0 43 14 22 22 -4 2
-17 28 -28 58 -11 30 -25 56 -31 58 -5 1 -16 -14 -22 -35z m30 -29 c0 -8 -7
-14 -15 -14 -17 0 -18 2 -9 24 7 18 24 12 24 -10z"/>
<path d="M940 557 c0 -2 9 -21 19 -43 11 -22 23 -52 26 -67 9 -33 23 -35 34
-4 8 20 40 92 49 110 2 4 -9 7 -24 7 -21 0 -25 -3 -17 -11 6 -6 10 -17 8 -23
-3 -6 -9 -24 -16 -41 l-11 -30 -13 40 c-10 28 -11 43 -3 52 8 10 4 13 -21 13
-17 0 -31 -1 -31 -3z"/>
<path d="M240 368 c-17 -17 -21 -19 -17 -5 5 12 1 17 -11 17 -13 0 -17 -9 -17
-40 0 -31 4 -40 17 -40 11 0 15 6 12 23 l-5 22 17 -22 c9 -13 23 -23 32 -23
12 0 10 6 -9 26 -23 25 -24 26 -5 40 11 7 17 16 14 20 -3 3 -16 -5 -28 -18z"/>
<path d="M422 383 c-41 -16 -32 -83 11 -83 44 0 62 43 31 74 -16 17 -21 18
-42 9z m33 -43 c0 -31 -31 -39 -40 -11 -8 26 2 43 23 39 11 -2 17 -13 17 -28z"/>
<path d="M730 381 c-10 -4 -15 -20 -15 -44 0 -35 2 -37 33 -37 17 0 32 5 32
11 0 6 -9 8 -20 4 -14 -5 -20 -2 -20 10 0 9 4 14 9 10 5 -3 12 -1 16 5 3 5 -1
10 -9 10 -9 0 -16 5 -16 11 0 6 9 9 20 6 11 -3 20 -2 20 3 0 11 -32 18 -50 11z"/>
<path d="M919 371 c-21 -17 -22 -22 -11 -45 10 -22 18 -27 39 -24 30 3 47 38
19 38 -10 0 -13 -6 -9 -16 4 -12 1 -15 -13 -12 -13 2 -19 12 -19 28 0 21 4 25
28 23 29 -2 37 11 11 21 -21 8 -19 9 -45 -13z"/>
<path d="M1025 381 c-15 -4 -20 -15 -20 -44 0 -35 2 -37 33 -37 23 0 32 4 32
17 0 13 -3 14 -12 5 -17 -17 -28 -15 -28 4 0 8 5 12 10 9 6 -3 10 -1 10 4 0 6
-4 11 -10 11 -5 0 -10 5 -10 11 0 6 9 8 21 4 15 -5 20 -3 17 6 -5 16 -17 19
-43 10z"/>
<path d="M295 340 c0 -23 5 -40 11 -40 7 0 9 10 6 25 -6 32 3 32 32 -2 l24
-27 4 42 c2 28 0 42 -8 42 -7 0 -10 -8 -7 -20 3 -11 1 -20 -3 -20 -5 0 -15 9
-22 20 -20 33 -37 24 -37 -20z"/>
<path d="M497 368 c6 -7 13 -25 17 -40 5 -24 26 -40 26 -21 0 23 -26 73 -38
73 -10 0 -11 -4 -5 -12z"/>
<path d="M543 355 c0 -14 3 -25 8 -25 5 0 9 -7 9 -15 0 -27 15 -15 32 25 14
35 14 40 2 40 -8 0 -13 -3 -11 -7 3 -5 1 -17 -3 -28 -7 -18 -8 -18 -15 8 -9
34 -22 35 -22 2z"/>
<path d="M635 340 c0 -37 2 -40 28 -40 18 0 27 5 27 16 0 13 -3 14 -15 4 -12
-10 -16 -9 -21 4 -3 9 -4 25 -1 36 3 11 0 20 -6 20 -7 0 -12 -16 -12 -40z"/>
<path d="M805 340 c0 -37 2 -40 26 -40 32 0 52 21 47 52 -2 18 -10 24 -38 26
-35 3 -35 3 -35 -38z m50 0 c0 -13 -6 -25 -12 -27 -9 -3 -13 6 -13 27 0 21 4
30 13 28 6 -3 12 -15 12 -28z"/>
</g>
</svg>
